PathFileType	4	(X/Y/Z)	11_2_81_p0_0-243.trc
DataRate	CameraRate	NumFrames	NumMarkers	Units	OrigDataRate	OrigDataStartFrame	OrigNumFrames
60.0	60.0	5	27	m	60.0	183	244
Frame#	Time	RHip			RKnee			RAnkle			RBigToe			RSmallToe			RHeel			LHip			LKnee			LAnkle			LBigToe			LSmallToe			LHeel			Neck			Head			Nose			RShoulder			RElbow			RWrist			RThumb			RIndex			RPinky			LShoulder			LElbow			LWrist			LThumb			LIndex			LPinky			
		X1	Y1	Z1	X2	Y2	Z2	X3	Y3	Z3	X4	Y4	Z4	X5	Y5	Z5	X6	Y6	Z6	X7	Y7	Z7	X8	Y8	Z8	X9	Y9	Z9	X10	Y10	Z10	X11	Y11	Z11	X12	Y12	Z12	X13	Y13	Z13	X14	Y14	Z14	X15	Y15	Z15	X16	Y16	Z16	X17	Y17	Z17	X18	Y18	Z18	X19	Y19	Z19	X20	Y20	Z20	X21	Y21	Z21	X22	Y22	Z22	X23	Y23	Z23	X24	Y24	Z24	X25	Y25	Z25	X26	Y26	Z26	X27	Y27	Z27	
183	3.05	0.35896250550268705	0.5248912090627696	0.6306744474099751	0.3493864839734456	0.5859759593589862	1.053000143632219	0.3545290680900597	0.6911208597299281	1.4547801953785326	0.35266083004254795	0.5132203312802942	1.4461209934193773	0.40176094543396895	0.562850584705234	1.4547701974830725	0.33590911924283695	0.7951439648601366	1.5361836411487249	0.16048225027743857	0.5344971649294794	0.6403663309360453	0.15736587048265263	0.6225069312993315	1.0755161642342428	0.18446109226493246	0.6921928124601225	1.4418215204438363	0.1981658810163923	0.4977663720102743	1.4352778197625928	0.14396753310041638	0.5522923070262182	1.4363764815671234	0.18884447963624312	0.7560892328242259	1.513658776090227	0.2583006337576773	0.5357690942955884	0.07548829501120848	0.27524193864084445	0.47332708287632586	-0.17176355697798007	0.28165677980598663	0.4552325885710173	-0.019302084661600494	0.39106658327959193	0.5375178765096675	0.1389376735903436	0.44781100234974186	0.42063468281177685	0.33802953747978304	0.32192856715597373	0.41781676650466687	0.15409852595396112	0.3171163948244364	0.5772930277499146	0.07814877475656322	0.28018613984310914	0.4965047873782148	0.07770138977565746	0.2672721647942793	0.4198352261295743	0.08857786260912673	0.11288215499873715	0.5402433964954708	0.12172477944439737	0.13880822941440724	0.3704309771984124	0.3063933905378111	0.23200518587858115	0.4179809106384737	0.15211221901203859	0.19086917675947948	0.47300283045179276	0.08362389881465547	0.21565802807561849	0.47376717475886604	0.07561910570815217	0.24321625335767214	0.400913740403272	0.08438147582109339
184	3.066666666666667	0.3591392015891296	0.524442421954068	0.6306704513171619	0.34957526590769333	0.5863036115148715	1.0535785550487262	0.35454468318017435	0.6911301672556368	1.4548077665085386	0.35256968180927234	0.5137923922304164	1.4466408865663785	0.4017342680939814	0.5640527110873658	1.4552951392443232	0.3359167126753808	0.7949263368961216	1.5359772506988938	0.16053434465570207	0.5345446736999301	0.6404433976972445	0.15735027948248426	0.62241695973896	1.075556608373338	0.18471592642403895	0.691435204744233	1.441355031226932	0.19820331726934695	0.497777962142139	1.4351752863534915	0.14993540121628063	0.5381714836280418	1.4278082736905795	0.18906002263999802	0.7556128114419509	1.513186874534674	0.2633632330140032	0.523321841160423	0.07416566197638114	0.27750256626064074	0.48418321222571487	-0.17202700759013068	0.28182083128052543	0.4552103570032742	-0.019273213586236418	0.39082372464061504	0.5376939252800913	0.13898259531637133	0.4514012557412109	0.4219557387902544	0.33811948627184013	0.32186271299085173	0.41792628940345683	0.15407670565829557	0.3057812564649355	0.5795990563613309	0.07790666391094894	0.2791469733235051	0.49862733148330457	0.07670173195855508	0.2723763924133378	0.43386950879794106	0.08742047673555589	0.11118951234193869	0.528008996634414	0.12429455199073713	0.13875484418873438	0.3706489544341555	0.30649232036450086	0.23210854359781413	0.41768542102497813	0.15199876860295208	0.19610967237364854	0.4598207833613171	0.08302208927347925	0.2135763193720441	0.46146651506397923	0.07480525658849635	0.24289484864336422	0.40103445800722815	0.08411954333067341
185	3.0833333333333335	0.3591766658375547	0.5247909907014074	0.6309194682589394	0.35052771475110067	0.5880713051574207	1.0581860547598994	0.3545125309525226	0.6910654743649954	1.454701964587906	0.34771910103136355	0.52732937624383	1.4545038774858505	0.40155947647301776	0.5631431233425473	1.4548462126484365	0.3358584118193566	0.7949681127278089	1.5359436732569227	0.16053035948502734	0.5344184150881928	0.6404128463815092	0.15738083710487774	0.62255617749724	1.0755623721478567	0.18469567470424628	0.6917118740662274	1.441467048364708	0.1982534040716914	0.4978876788262594	1.435415375269691	0.14984960003751424	0.5384299145828618	1.4282901280087954	0.1889777486978425	0.75491356298955	1.5126323267367736	0.26341068380811977	0.523615233829541	0.07412660158204616	0.2775903612268705	0.4839404102839866	-0.17201387085358238	0.28172847357221253	0.45550542125050825	-0.01922454968043379	0.39488688389264487	0.5396962195703631	0.1390253658522363	0.45156138172738036	0.4220364585659806	0.3383159228462279	0.3218405641804861	0.41788341534958034	0.15414579432707304	0.29814797898518575	0.5605159935014592	0.07685137113419889	0.27946127347189276	0.4975252509214668	0.07752380867405863	0.26010356780414184	0.4310857873278985	0.0938460843515107	0.1115249254129151	0.5293756377020028	0.12774415615444437	0.13874029870269813	0.37075863170205414	0.3066912867572096	0.23054194865881666	0.4077255571020458	0.15478914624584877	0.19101772447788334	0.47231328827545693	0.08720933770882593	0.21355801772980867	0.4623696362931517	0.07474706553983215	0.24312479096224446	0.40070365520448314	0.08752829970440984
186	3.1	0.3641069134131764	0.5111569092041134	0.6269831232673254	0.34958854117518867	0.5860662680628678	1.053247500317928	0.3544298023603503	0.6911298578463454	1.4547619677694192	0.3501681269338112	0.5011995193515673	1.4399373177040973	0.4008794186118476	0.5641948680675398	1.4597311469174192	0.335728736448676	0.7951706096563315	1.5360165466444706	0.1604911167587918	0.5345687192242746	0.6404894974866022	0.15735581041283445	0.6225079778178654	1.0755217061004372	0.18463808064940457	0.6919030461665128	1.4415423737715618	0.19823321237807948	0.4976037262619295	1.4352812630015397	0.14986082172195353	0.5382296102626213	1.4281675388787276	0.18889480179800164	0.7558104715598072	1.5133843221199959	0.2636083696973505	0.5234538069001317	0.07417881745977367	0.2777591253398208	0.4837854469469222	-0.17201065937698246	0.2865889523604149	0.443080084527869	-0.020057534925791425	0.3954586011528736	0.5406219546186345	0.14253684433468342	0.45517309482855606	0.42350905012196277	0.33843644538766093	0.322119859393176	0.41727580068838876	0.15722385016442694	0.3058831097416935	0.5792507273021339	0.07868542501739974	0.27962177037232755	0.49650093784328714	0.07791806962113172	0.2623105800166989	0.40800862447149117	0.098091069215267	0.11305924461511208	0.5415441349183432	0.12883996875275827	0.13888926369661952	0.36998631759565864	0.30995153890662436	0.23050955666268377	0.40737852893763055	0.15489668017178357	0.1903904130236286	0.4725346784988648	0.0872111570984595	0.21840556262777117	0.45032196166710015	0.07361910461165656	0.24414684672162398	0.4018946710333319	0.09712265132066471
187	3.1166666666666667	0.36388345103037806	0.5122322723697099	0.6234814300060093	0.3495371727501039	0.5858181104769932	1.0528849972963876	0.3535611035136409	0.6890126469079872	1.4497101141442648	0.35246949276428957	0.5136443343164723	1.4465362913450546	0.4005290738378213	0.5641736925378994	1.4596808936926424	0.33572842530486374	0.7948552391617988	1.53561642473862	0.16011832771107637	0.5355234531012192	0.6369528225460496	0.1568387981651503	0.6236555534969227	1.0720216007928551	0.18457885090096443	0.6915434150695605	1.441431857355587	0.19815964607751183	0.49785042020666737	1.4354091368023496	0.1439352793886381	0.5520781881945415	1.4362067927787334	0.1888769930881557	0.7547208876129373	1.512462521854836	0.26896826774300736	0.5106239665404676	0.07654995176402715	0.2777856378692777	0.4837136304410742	-0.1719508757239062	0.28671864513575607	0.442525352407479	-0.0200234139776039	0.395957360191655	0.5402195568239279	0.14598377341280325	0.4553795221946794	0.4231677900198316	0.3385219803497264	0.3228483179615731	0.41841151604578625	0.1613011263217805	0.32281130072555536	0.5835996034781261	0.08352509945756728	0.28473983783645457	0.48496802830617486	0.07681115553239021	0.2779985670727916	0.4087209536805737	0.10854964943183092	0.11350337987733129	0.5412381880641214	0.13289355975057562	0.1386891711070144	0.36982278299465116	0.3099062275299782	0.23536052077581146	0.39552950769996376	0.15313068765302126	0.20955054152911973	0.447971418534309	0.08585201384803502	0.2305241814019035	0.43810578879323225	0.06990177195204618	0.2458165756983883	0.38941225688420517	0.10043647354437944
